<svg xmlns="http://www.w3.org/2000/svg" xmlns:xlink="http://www.w3.org/1999/xlink" width="532" zoomAndPan="magnify" viewBox="0 0 398.88 221.249992" height="295" preserveAspectRatio="xMidYMid meet" version="1.0"><defs><g/></defs><g fill="#000d6b" fill-opacity="1"><g transform="translate(292.556727, 154.33554)"><g><path d="M 2.75 0 L 2.75 -1.25 L 5.015625 -2.125 C 6.679688 -2.789062 7.828125 -3.625 8.453125 -4.625 C 9.078125 -5.632812 9.390625 -6.972656 9.390625 -8.640625 L 9.390625 -74 C 9.390625 -75.75 9.078125 -77.125 8.453125 -78.125 C 7.828125 -79.125 6.679688 -79.914062 5.015625 -80.5 L 2.75 -81.375 L 2.75 -82.640625 L 38.6875 -82.640625 C 48.875 -82.640625 56.21875 -80.78125 60.71875 -77.0625 C 65.226562 -73.34375 67.484375 -68.648438 67.484375 -62.984375 C 67.484375 -58.722656 65.832031 -54.859375 62.53125 -51.390625 C 59.238281 -47.929688 53.585938 -45.492188 45.578125 -44.078125 C 54.753906 -43.066406 61.46875 -40.660156 65.71875 -36.859375 C 69.976562 -33.066406 72.109375 -28.457031 72.109375 -23.03125 C 72.109375 -20.363281 71.523438 -17.671875 70.359375 -14.953125 C 69.191406 -12.242188 67.207031 -9.757812 64.40625 -7.5 C 61.613281 -5.25 57.796875 -3.4375 52.953125 -2.0625 C 48.117188 -0.6875 41.988281 0 34.5625 0 Z M 27.921875 -44.203125 L 33.296875 -44.203125 C 38.890625 -44.203125 42.914062 -45.492188 45.375 -48.078125 C 47.84375 -50.660156 49.078125 -55.164062 49.078125 -61.59375 C 49.078125 -68.269531 47.945312 -73.023438 45.6875 -75.859375 C 43.4375 -78.703125 39.769531 -80.125 34.6875 -80.125 L 27.921875 -80.125 Z M 27.921875 -2.5 L 34.1875 -2.5 C 40.445312 -2.5 45.097656 -4.164062 48.140625 -7.5 C 51.179688 -10.84375 52.703125 -16.0625 52.703125 -23.15625 C 52.703125 -29.832031 51.242188 -34.585938 48.328125 -37.421875 C 45.410156 -40.265625 40.613281 -41.6875 33.9375 -41.6875 L 27.921875 -41.6875 Z M 27.921875 -2.5 "/></g></g></g><path stroke-linecap="butt" transform="matrix(0.747466, 0, 0, 0.747466, 273.06935, 13.811904)" fill="none" stroke-linejoin="miter" d="M 67.625587 196.335983 C 55.684201 196.335983 44.87163 193.900672 35.187872 189.03005 C 25.53547 184.159428 17.863718 176.926659 12.177842 167.331743 C 6.528548 157.705471 3.701288 145.931318 3.701288 132.009283 C 3.701288 121.421429 5.415412 112.12962 8.843661 104.128631 C 12.29804 96.127642 17.022334 89.422698 23.006092 84.008573 C 28.989849 78.563092 35.893381 74.492047 43.71146 71.784984 C 51.534766 69.077922 59.817959 67.724391 68.571491 67.724391 C 75.579542 67.724391 82.028413 68.518741 87.923328 70.112668 C 93.8496 71.706595 99.3996 73.932866 104.568104 76.791482 L 105.336324 99.482727 L 103.486324 99.482727 L 94.241549 84.729759 C 93.008216 82.38329 91.654684 80.266765 90.180956 78.369731 C 88.707227 76.446567 86.857226 74.988516 84.630955 73.995578 C 82.796633 73.154193 80.977989 72.521849 79.169797 72.098544 C 77.398186 71.649109 75.156237 71.424391 72.449175 71.424391 C 65.294795 71.424391 58.783213 73.331877 52.914427 77.152075 C 47.082223 80.972273 42.404963 87.285268 38.887872 96.096286 C 35.365556 104.912529 33.609623 116.942756 33.609623 132.186966 C 33.609623 147.347561 35.276714 159.330754 38.616121 168.141772 C 41.955528 176.952789 46.481235 183.239654 52.193241 187.002366 C 57.941829 190.759852 64.375021 192.641208 71.50327 192.641208 C 75.443666 192.641208 78.584486 192.369457 80.930955 191.825954 C 83.277424 191.256321 85.623893 190.414937 87.970362 189.301801 C 90.316831 188.308863 92.088442 186.86649 93.290419 184.969456 C 94.523753 183.046292 95.636888 180.987253 96.629826 178.787111 L 104.751013 160.652929 L 106.601013 160.652929 L 106.05751 187.091208 C 100.883781 189.79827 95.098611 192.008864 88.691549 193.722988 C 82.284486 195.468469 75.260757 196.335983 67.625587 196.335983 Z M 67.625587 196.335983 " stroke="#000d6b" stroke-width="2.540766" stroke-opacity="1" stroke-miterlimit="4"/><g fill="#ff5da2" fill-opacity="1"><g transform="translate(273.06935, 158.072872)"><g><path d="M 50.546875 2.484375 C 41.617188 2.484375 33.539062 0.664062 26.3125 -2.96875 C 19.082031 -6.601562 13.347656 -12.007812 9.109375 -19.1875 C 4.878906 -26.375 2.765625 -35.171875 2.765625 -45.578125 C 2.765625 -53.492188 4.050781 -60.441406 6.625 -66.421875 C 9.207031 -72.410156 12.726562 -77.429688 17.1875 -81.484375 C 21.65625 -85.535156 26.8125 -88.570312 32.65625 -90.59375 C 38.507812 -92.625 44.703125 -93.640625 51.234375 -93.640625 C 56.484375 -93.640625 61.316406 -93.039062 65.734375 -91.84375 C 70.160156 -90.644531 74.304688 -88.988281 78.171875 -86.875 L 78.71875 -69.890625 L 77.34375 -69.890625 L 70.4375 -80.9375 C 69.519531 -82.6875 68.503906 -84.273438 67.390625 -85.703125 C 66.285156 -87.128906 64.90625 -88.207031 63.25 -88.9375 C 61.875 -89.582031 60.515625 -90.066406 59.171875 -90.390625 C 57.835938 -90.710938 56.160156 -90.875 54.140625 -90.875 C 48.796875 -90.875 43.9375 -89.445312 39.5625 -86.59375 C 35.195312 -83.738281 31.703125 -79.019531 29.078125 -72.4375 C 26.453125 -65.851562 25.140625 -56.851562 25.140625 -45.4375 C 25.140625 -34.113281 26.378906 -25.160156 28.859375 -18.578125 C 31.347656 -11.992188 34.734375 -7.296875 39.015625 -4.484375 C 43.296875 -1.679688 48.109375 -0.28125 53.453125 -0.28125 C 56.398438 -0.28125 58.742188 -0.484375 60.484375 -0.890625 C 62.234375 -1.304688 63.984375 -1.929688 65.734375 -2.765625 C 67.484375 -3.492188 68.816406 -4.570312 69.734375 -6 C 70.660156 -7.4375 71.492188 -8.984375 72.234375 -10.640625 L 78.3125 -24.171875 L 79.6875 -24.171875 L 79.28125 -4.421875 C 75.40625 -2.390625 71.070312 -0.734375 66.28125 0.546875 C 61.5 1.835938 56.253906 2.484375 50.546875 2.484375 Z M 50.546875 2.484375 "/></g></g></g><path stroke-linecap="butt" transform="matrix(0.747466, 0, 0, 0.747466, 280.650147, 25.023897)" fill="none" stroke-linejoin="miter" d="M 15.639098 172.002365 L 15.639098 170.350952 L 19.098703 169.023551 C 21.403364 168.161263 22.850963 167.105613 23.4415 165.840924 C 24.058167 164.55533 24.3665 162.80985 24.3665 160.609709 L 24.3665 74.579476 C 24.3665 72.379335 24.032037 70.623402 23.36311 69.311679 C 22.720313 67.99473 21.298844 66.949532 19.098703 66.170859 L 15.639098 64.885266 L 15.639098 63.233854 L 57.687407 63.233854 L 57.687407 64.885266 L 54.708593 66.170859 C 52.618197 66.949532 51.18105 68.02086 50.402378 69.390069 C 49.655061 70.759278 49.27879 72.54134 49.27879 74.741482 L 49.27879 168.69954 L 74.630063 168.69954 C 78.706335 168.69954 81.695601 167.72228 83.603087 165.762534 C 85.531477 163.776658 87.381477 160.90759 89.153087 157.150104 L 95.591506 143.311685 L 97.242918 143.311685 L 95.753511 172.002365 Z M 15.639098 172.002365 " stroke="#000d6b" stroke-width="2.266399" stroke-opacity="1" stroke-miterlimit="4"/><g fill="#9c19e0" fill-opacity="1"><g transform="translate(289.63142, 153.588076)"><g><path d="M 2.703125 0 L 2.703125 -1.234375 L 5.296875 -2.21875 C 7.023438 -2.875 8.113281 -3.671875 8.5625 -4.609375 C 9.007812 -5.554688 9.234375 -6.851562 9.234375 -8.5 L 9.234375 -72.8125 C 9.234375 -74.457031 8.988281 -75.769531 8.5 -76.75 C 8.007812 -77.738281 6.941406 -78.519531 5.296875 -79.09375 L 2.703125 -80.078125 L 2.703125 -81.3125 L 34.125 -81.3125 L 34.125 -80.078125 L 31.90625 -79.09375 C 30.34375 -78.519531 29.273438 -77.71875 28.703125 -76.6875 C 28.128906 -75.664062 27.84375 -74.332031 27.84375 -72.6875 L 27.84375 -2.46875 L 46.8125 -2.46875 C 49.851562 -2.46875 52.09375 -3.207031 53.53125 -4.6875 C 54.96875 -6.164062 56.34375 -8.300781 57.65625 -11.09375 L 62.46875 -21.4375 L 63.703125 -21.4375 L 62.59375 0 Z M 2.703125 0 "/></g></g></g><g fill="#000d6b" fill-opacity="0.4"><g transform="translate(53.368718, 135.484761)"><g><path d="M 1.984375 0 L 1.984375 -0.90625 L 3.796875 -1.53125 C 5.003906 -1.894531 5.800781 -2.4375 6.1875 -3.15625 C 6.582031 -3.882812 6.78125 -4.851562 6.78125 -6.0625 L 6.78125 -53.46875 C 6.78125 -54.675781 6.566406 -55.640625 6.140625 -56.359375 C 5.722656 -57.085938 4.910156 -57.660156 3.703125 -58.078125 L 1.984375 -58.796875 L 1.984375 -59.703125 L 23.96875 -59.703125 C 32.957031 -59.703125 39.457031 -58.054688 43.46875 -54.765625 C 47.476562 -51.484375 49.484375 -47.160156 49.484375 -41.796875 C 49.484375 -38.359375 48.65625 -35.207031 47 -32.34375 C 45.34375 -29.476562 42.613281 -27.203125 38.8125 -25.515625 C 35.007812 -23.828125 29.882812 -22.984375 23.4375 -22.984375 L 20.359375 -22.984375 L 20.359375 -6.328125 C 20.359375 -3.972656 21.535156 -2.4375 23.890625 -1.71875 L 26.59375 -0.90625 L 26.59375 0 Z M 20.359375 -24.78125 L 23.796875 -24.78125 C 26.742188 -24.78125 29.148438 -25.265625 31.015625 -26.234375 C 32.890625 -27.203125 34.28125 -28.890625 35.1875 -31.296875 C 36.09375 -33.710938 36.546875 -37.0625 36.546875 -41.34375 C 36.546875 -45.6875 36.046875 -49.0625 35.046875 -51.46875 C 34.054688 -53.882812 32.597656 -55.5625 30.671875 -56.5 C 28.742188 -57.4375 26.332031 -57.90625 23.4375 -57.90625 L 20.359375 -57.90625 Z M 20.359375 -24.78125 "/></g></g></g><g fill="#000d6b" fill-opacity="0.4"><g transform="translate(102.669952, 135.484761)"><g><path d="M 24.515625 -44.875 C 28.429688 -44.875 31.773438 -44.070312 34.546875 -42.46875 C 37.328125 -40.875 39.457031 -38.703125 40.9375 -35.953125 C 42.414062 -33.210938 43.15625 -30.09375 43.15625 -26.59375 C 43.15625 -25.9375 43.125 -25.257812 43.0625 -24.5625 C 43 -23.863281 42.878906 -23.242188 42.703125 -22.703125 L 15.734375 -22.703125 C 15.796875 -16.191406 16.957031 -11.503906 19.21875 -8.640625 C 21.476562 -5.773438 24.84375 -4.34375 29.3125 -4.34375 C 32.320312 -4.34375 34.757812 -4.820312 36.625 -5.78125 C 38.5 -6.75 40.253906 -8.171875 41.890625 -10.046875 L 42.796875 -9.234375 C 40.921875 -5.910156 38.429688 -3.3125 35.328125 -1.4375 C 32.222656 0.425781 28.5 1.359375 24.15625 1.359375 C 19.875 1.359375 16.070312 0.441406 12.75 -1.390625 C 9.4375 -3.234375 6.84375 -5.875 4.96875 -9.3125 C 3.101562 -12.75 2.171875 -16.851562 2.171875 -21.625 C 2.171875 -26.570312 3.253906 -30.773438 5.421875 -34.234375 C 7.597656 -37.703125 10.390625 -40.34375 13.796875 -42.15625 C 17.203125 -43.96875 20.773438 -44.875 24.515625 -44.875 Z M 24.25 -43.0625 C 22.5 -43.0625 21.003906 -42.53125 19.765625 -41.46875 C 18.523438 -40.414062 17.554688 -38.546875 16.859375 -35.859375 C 16.171875 -33.179688 15.796875 -29.398438 15.734375 -24.515625 L 31.21875 -24.515625 C 31.8125 -31.085938 31.566406 -35.820312 30.484375 -38.71875 C 29.398438 -41.613281 27.320312 -43.0625 24.25 -43.0625 Z M 24.25 -43.0625 "/></g></g></g><g fill="#000d6b" fill-opacity="0.4"><g transform="translate(148.533857, 135.484761)"><g><path d="M 24.515625 -44.875 C 28.429688 -44.875 31.773438 -44.070312 34.546875 -42.46875 C 37.328125 -40.875 39.457031 -38.703125 40.9375 -35.953125 C 42.414062 -33.210938 43.15625 -30.09375 43.15625 -26.59375 C 43.15625 -25.9375 43.125 -25.257812 43.0625 -24.5625 C 43 -23.863281 42.878906 -23.242188 42.703125 -22.703125 L 15.734375 -22.703125 C 15.796875 -16.191406 16.957031 -11.503906 19.21875 -8.640625 C 21.476562 -5.773438 24.84375 -4.34375 29.3125 -4.34375 C 32.320312 -4.34375 34.757812 -4.820312 36.625 -5.78125 C 38.5 -6.75 40.253906 -8.171875 41.890625 -10.046875 L 42.796875 -9.234375 C 40.921875 -5.910156 38.429688 -3.3125 35.328125 -1.4375 C 32.222656 0.425781 28.5 1.359375 24.15625 1.359375 C 19.875 1.359375 16.070312 0.441406 12.75 -1.390625 C 9.4375 -3.234375 6.84375 -5.875 4.96875 -9.3125 C 3.101562 -12.75 2.171875 -16.851562 2.171875 -21.625 C 2.171875 -26.570312 3.253906 -30.773438 5.421875 -34.234375 C 7.597656 -37.703125 10.390625 -40.34375 13.796875 -42.15625 C 17.203125 -43.96875 20.773438 -44.875 24.515625 -44.875 Z M 24.25 -43.0625 C 22.5 -43.0625 21.003906 -42.53125 19.765625 -41.46875 C 18.523438 -40.414062 17.554688 -38.546875 16.859375 -35.859375 C 16.171875 -33.179688 15.796875 -29.398438 15.734375 -24.515625 L 31.21875 -24.515625 C 31.8125 -31.085938 31.566406 -35.820312 30.484375 -38.71875 C 29.398438 -41.613281 27.320312 -43.0625 24.25 -43.0625 Z M 24.25 -43.0625 "/></g></g></g><g fill="#000d6b" fill-opacity="0.4"><g transform="translate(194.397761, 135.484761)"><g><path d="M 1.8125 0 L 1.8125 -0.90625 L 3.171875 -1.265625 C 4.367188 -1.628906 5.191406 -2.171875 5.640625 -2.890625 C 6.097656 -3.617188 6.328125 -4.554688 6.328125 -5.703125 L 6.328125 -34.015625 C 6.328125 -35.335938 6.097656 -36.316406 5.640625 -36.953125 C 5.191406 -37.585938 4.367188 -38.023438 3.171875 -38.265625 L 1.8125 -38.625 L 1.8125 -39.53125 L 17.375 -44.78125 L 18.28125 -43.875 L 19.09375 -36.09375 L 19.09375 -35.375 C 19.9375 -37.0625 21.035156 -38.613281 22.390625 -40.03125 C 23.742188 -41.445312 25.25 -42.609375 26.90625 -43.515625 C 28.570312 -44.421875 30.21875 -44.875 31.84375 -44.875 C 34.132812 -44.875 35.882812 -44.238281 37.09375 -42.96875 C 38.300781 -41.707031 38.90625 -40.109375 38.90625 -38.171875 C 38.90625 -36.128906 38.316406 -34.546875 37.140625 -33.421875 C 35.960938 -32.304688 34.5625 -31.75 32.9375 -31.75 C 30.394531 -31.75 28.160156 -33.015625 26.234375 -35.546875 L 26.0625 -35.734375 C 25.457031 -36.578125 24.757812 -37.039062 23.96875 -37.125 C 23.1875 -37.21875 22.460938 -36.84375 21.796875 -36 C 21.191406 -35.457031 20.691406 -34.8125 20.296875 -34.0625 C 19.910156 -33.3125 19.535156 -32.453125 19.171875 -31.484375 L 19.171875 -6.25 C 19.171875 -3.832031 20.226562 -2.320312 22.34375 -1.71875 L 25.234375 -0.90625 L 25.234375 0 Z M 1.8125 0 "/></g></g></g><g fill="#000d6b" fill-opacity="0.4"><g transform="translate(233.386504, 135.484761)"><g><path d="M 17.453125 1.359375 C 14.503906 1.359375 11.851562 1.007812 9.5 0.3125 C 7.144531 -0.375 4.972656 -1.234375 2.984375 -2.265625 L 3.078125 -13.03125 L 3.984375 -13.03125 L 7.0625 -7.59375 C 8.382812 -5.1875 9.84375 -3.394531 11.4375 -2.21875 C 13.039062 -1.039062 15.078125 -0.453125 17.546875 -0.453125 C 20.441406 -0.453125 22.78125 -1.097656 24.5625 -2.390625 C 26.34375 -3.691406 27.234375 -5.425781 27.234375 -7.59375 C 27.234375 -9.582031 26.597656 -11.210938 25.328125 -12.484375 C 24.066406 -13.753906 21.71875 -14.898438 18.28125 -15.921875 L 14.46875 -17.09375 C 10.789062 -18.1875 7.894531 -19.878906 5.78125 -22.171875 C 3.675781 -24.460938 2.625 -27.265625 2.625 -30.578125 C 2.625 -34.554688 4.191406 -37.929688 7.328125 -40.703125 C 10.460938 -43.484375 14.957031 -44.875 20.8125 -44.875 C 23.164062 -44.875 25.378906 -44.613281 27.453125 -44.09375 C 29.535156 -43.582031 31.539062 -42.816406 33.46875 -41.796875 L 32.9375 -32.03125 L 32.03125 -32.03125 L 28.859375 -37.640625 C 27.710938 -39.628906 26.582031 -41.03125 25.46875 -41.84375 C 24.351562 -42.65625 22.679688 -43.0625 20.453125 -43.0625 C 18.398438 -43.0625 16.46875 -42.488281 14.65625 -41.34375 C 12.84375 -40.195312 11.9375 -38.566406 11.9375 -36.453125 C 11.9375 -34.410156 12.707031 -32.785156 14.25 -31.578125 C 15.789062 -30.367188 18.066406 -29.25 21.078125 -28.21875 L 25.15625 -27.046875 C 29.488281 -25.722656 32.585938 -23.898438 34.453125 -21.578125 C 36.328125 -19.253906 37.265625 -16.460938 37.265625 -13.203125 C 37.265625 -8.804688 35.53125 -5.28125 32.0625 -2.625 C 28.601562 0.03125 23.734375 1.359375 17.453125 1.359375 Z M 17.453125 1.359375 "/></g></g></g><g fill="#162144" fill-opacity="1"><g transform="translate(49.370343, 131.486387)"><g><path d="M 1.984375 0 L 1.984375 -0.90625 L 3.796875 -1.53125 C 5.003906 -1.894531 5.800781 -2.4375 6.1875 -3.15625 C 6.582031 -3.882812 6.78125 -4.851562 6.78125 -6.0625 L 6.78125 -53.46875 C 6.78125 -54.675781 6.566406 -55.640625 6.140625 -56.359375 C 5.722656 -57.085938 4.910156 -57.660156 3.703125 -58.078125 L 1.984375 -58.796875 L 1.984375 -59.703125 L 23.96875 -59.703125 C 32.957031 -59.703125 39.457031 -58.054688 43.46875 -54.765625 C 47.476562 -51.484375 49.484375 -47.160156 49.484375 -41.796875 C 49.484375 -38.359375 48.65625 -35.207031 47 -32.34375 C 45.34375 -29.476562 42.613281 -27.203125 38.8125 -25.515625 C 35.007812 -23.828125 29.882812 -22.984375 23.4375 -22.984375 L 20.359375 -22.984375 L 20.359375 -6.328125 C 20.359375 -3.972656 21.535156 -2.4375 23.890625 -1.71875 L 26.59375 -0.90625 L 26.59375 0 Z M 20.359375 -24.78125 L 23.796875 -24.78125 C 26.742188 -24.78125 29.148438 -25.265625 31.015625 -26.234375 C 32.890625 -27.203125 34.28125 -28.890625 35.1875 -31.296875 C 36.09375 -33.710938 36.546875 -37.0625 36.546875 -41.34375 C 36.546875 -45.6875 36.046875 -49.0625 35.046875 -51.46875 C 34.054688 -53.882812 32.597656 -55.5625 30.671875 -56.5 C 28.742188 -57.4375 26.332031 -57.90625 23.4375 -57.90625 L 20.359375 -57.90625 Z M 20.359375 -24.78125 "/></g></g></g><g fill="#162144" fill-opacity="1"><g transform="translate(98.671578, 131.486387)"><g><path d="M 24.515625 -44.875 C 28.429688 -44.875 31.773438 -44.070312 34.546875 -42.46875 C 37.328125 -40.875 39.457031 -38.703125 40.9375 -35.953125 C 42.414062 -33.210938 43.15625 -30.09375 43.15625 -26.59375 C 43.15625 -25.9375 43.125 -25.257812 43.0625 -24.5625 C 43 -23.863281 42.878906 -23.242188 42.703125 -22.703125 L 15.734375 -22.703125 C 15.796875 -16.191406 16.957031 -11.503906 19.21875 -8.640625 C 21.476562 -5.773438 24.84375 -4.34375 29.3125 -4.34375 C 32.320312 -4.34375 34.757812 -4.820312 36.625 -5.78125 C 38.5 -6.75 40.253906 -8.171875 41.890625 -10.046875 L 42.796875 -9.234375 C 40.921875 -5.910156 38.429688 -3.3125 35.328125 -1.4375 C 32.222656 0.425781 28.5 1.359375 24.15625 1.359375 C 19.875 1.359375 16.070312 0.441406 12.75 -1.390625 C 9.4375 -3.234375 6.84375 -5.875 4.96875 -9.3125 C 3.101562 -12.75 2.171875 -16.851562 2.171875 -21.625 C 2.171875 -26.570312 3.253906 -30.773438 5.421875 -34.234375 C 7.597656 -37.703125 10.390625 -40.34375 13.796875 -42.15625 C 17.203125 -43.96875 20.773438 -44.875 24.515625 -44.875 Z M 24.25 -43.0625 C 22.5 -43.0625 21.003906 -42.53125 19.765625 -41.46875 C 18.523438 -40.414062 17.554688 -38.546875 16.859375 -35.859375 C 16.171875 -33.179688 15.796875 -29.398438 15.734375 -24.515625 L 31.21875 -24.515625 C 31.8125 -31.085938 31.566406 -35.820312 30.484375 -38.71875 C 29.398438 -41.613281 27.320312 -43.0625 24.25 -43.0625 Z M 24.25 -43.0625 "/></g></g></g><g fill="#162144" fill-opacity="1"><g transform="translate(144.535482, 131.486387)"><g><path d="M 24.515625 -44.875 C 28.429688 -44.875 31.773438 -44.070312 34.546875 -42.46875 C 37.328125 -40.875 39.457031 -38.703125 40.9375 -35.953125 C 42.414062 -33.210938 43.15625 -30.09375 43.15625 -26.59375 C 43.15625 -25.9375 43.125 -25.257812 43.0625 -24.5625 C 43 -23.863281 42.878906 -23.242188 42.703125 -22.703125 L 15.734375 -22.703125 C 15.796875 -16.191406 16.957031 -11.503906 19.21875 -8.640625 C 21.476562 -5.773438 24.84375 -4.34375 29.3125 -4.34375 C 32.320312 -4.34375 34.757812 -4.820312 36.625 -5.78125 C 38.5 -6.75 40.253906 -8.171875 41.890625 -10.046875 L 42.796875 -9.234375 C 40.921875 -5.910156 38.429688 -3.3125 35.328125 -1.4375 C 32.222656 0.425781 28.5 1.359375 24.15625 1.359375 C 19.875 1.359375 16.070312 0.441406 12.75 -1.390625 C 9.4375 -3.234375 6.84375 -5.875 4.96875 -9.3125 C 3.101562 -12.75 2.171875 -16.851562 2.171875 -21.625 C 2.171875 -26.570312 3.253906 -30.773438 5.421875 -34.234375 C 7.597656 -37.703125 10.390625 -40.34375 13.796875 -42.15625 C 17.203125 -43.96875 20.773438 -44.875 24.515625 -44.875 Z M 24.25 -43.0625 C 22.5 -43.0625 21.003906 -42.53125 19.765625 -41.46875 C 18.523438 -40.414062 17.554688 -38.546875 16.859375 -35.859375 C 16.171875 -33.179688 15.796875 -29.398438 15.734375 -24.515625 L 31.21875 -24.515625 C 31.8125 -31.085938 31.566406 -35.820312 30.484375 -38.71875 C 29.398438 -41.613281 27.320312 -43.0625 24.25 -43.0625 Z M 24.25 -43.0625 "/></g></g></g><g fill="#162144" fill-opacity="1"><g transform="translate(190.399386, 131.486387)"><g><path d="M 1.8125 0 L 1.8125 -0.90625 L 3.171875 -1.265625 C 4.367188 -1.628906 5.191406 -2.171875 5.640625 -2.890625 C 6.097656 -3.617188 6.328125 -4.554688 6.328125 -5.703125 L 6.328125 -34.015625 C 6.328125 -35.335938 6.097656 -36.316406 5.640625 -36.953125 C 5.191406 -37.585938 4.367188 -38.023438 3.171875 -38.265625 L 1.8125 -38.625 L 1.8125 -39.53125 L 17.375 -44.78125 L 18.28125 -43.875 L 19.09375 -36.09375 L 19.09375 -35.375 C 19.9375 -37.0625 21.035156 -38.613281 22.390625 -40.03125 C 23.742188 -41.445312 25.25 -42.609375 26.90625 -43.515625 C 28.570312 -44.421875 30.21875 -44.875 31.84375 -44.875 C 34.132812 -44.875 35.882812 -44.238281 37.09375 -42.96875 C 38.300781 -41.707031 38.90625 -40.109375 38.90625 -38.171875 C 38.90625 -36.128906 38.316406 -34.546875 37.140625 -33.421875 C 35.960938 -32.304688 34.5625 -31.75 32.9375 -31.75 C 30.394531 -31.75 28.160156 -33.015625 26.234375 -35.546875 L 26.0625 -35.734375 C 25.457031 -36.578125 24.757812 -37.039062 23.96875 -37.125 C 23.1875 -37.21875 22.460938 -36.84375 21.796875 -36 C 21.191406 -35.457031 20.691406 -34.8125 20.296875 -34.0625 C 19.910156 -33.3125 19.535156 -32.453125 19.171875 -31.484375 L 19.171875 -6.25 C 19.171875 -3.832031 20.226562 -2.320312 22.34375 -1.71875 L 25.234375 -0.90625 L 25.234375 0 Z M 1.8125 0 "/></g></g></g><g fill="#162144" fill-opacity="1"><g transform="translate(229.38813, 131.486387)"><g><path d="M 17.453125 1.359375 C 14.503906 1.359375 11.851562 1.007812 9.5 0.3125 C 7.144531 -0.375 4.972656 -1.234375 2.984375 -2.265625 L 3.078125 -13.03125 L 3.984375 -13.03125 L 7.0625 -7.59375 C 8.382812 -5.1875 9.84375 -3.394531 11.4375 -2.21875 C 13.039062 -1.039062 15.078125 -0.453125 17.546875 -0.453125 C 20.441406 -0.453125 22.78125 -1.097656 24.5625 -2.390625 C 26.34375 -3.691406 27.234375 -5.425781 27.234375 -7.59375 C 27.234375 -9.582031 26.597656 -11.210938 25.328125 -12.484375 C 24.066406 -13.753906 21.71875 -14.898438 18.28125 -15.921875 L 14.46875 -17.09375 C 10.789062 -18.1875 7.894531 -19.878906 5.78125 -22.171875 C 3.675781 -24.460938 2.625 -27.265625 2.625 -30.578125 C 2.625 -34.554688 4.191406 -37.929688 7.328125 -40.703125 C 10.460938 -43.484375 14.957031 -44.875 20.8125 -44.875 C 23.164062 -44.875 25.378906 -44.613281 27.453125 -44.09375 C 29.535156 -43.582031 31.539062 -42.816406 33.46875 -41.796875 L 32.9375 -32.03125 L 32.03125 -32.03125 L 28.859375 -37.640625 C 27.710938 -39.628906 26.582031 -41.03125 25.46875 -41.84375 C 24.351562 -42.65625 22.679688 -43.0625 20.453125 -43.0625 C 18.398438 -43.0625 16.46875 -42.488281 14.65625 -41.34375 C 12.84375 -40.195312 11.9375 -38.566406 11.9375 -36.453125 C 11.9375 -34.410156 12.707031 -32.785156 14.25 -31.578125 C 15.789062 -30.367188 18.066406 -29.25 21.078125 -28.21875 L 25.15625 -27.046875 C 29.488281 -25.722656 32.585938 -23.898438 34.453125 -21.578125 C 36.328125 -19.253906 37.265625 -16.460938 37.265625 -13.203125 C 37.265625 -8.804688 35.53125 -5.28125 32.0625 -2.625 C 28.601562 0.03125 23.734375 1.359375 17.453125 1.359375 Z M 17.453125 1.359375 "/></g></g></g><g fill="#162144" fill-opacity="1"><g transform="translate(51.754908, 152.978618)"><g><path d="M 7.9375 0.390625 C 6.53125 0.390625 5.257812 0.101562 4.125 -0.46875 C 2.988281 -1.039062 2.085938 -1.890625 1.421875 -3.015625 C 0.765625 -4.140625 0.4375 -5.519531 0.4375 -7.15625 C 0.4375 -8.394531 0.632812 -9.484375 1.03125 -10.421875 C 1.4375 -11.359375 1.988281 -12.144531 2.6875 -12.78125 C 3.394531 -13.414062 4.207031 -13.890625 5.125 -14.203125 C 6.039062 -14.523438 7.015625 -14.6875 8.046875 -14.6875 C 8.867188 -14.6875 9.625 -14.59375 10.3125 -14.40625 C 11.007812 -14.21875 11.660156 -13.957031 12.265625 -13.625 L 12.359375 -10.96875 L 12.140625 -10.96875 L 11.046875 -12.703125 C 10.898438 -12.972656 10.738281 -13.21875 10.5625 -13.4375 C 10.394531 -13.664062 10.179688 -13.835938 9.921875 -13.953125 C 9.703125 -14.054688 9.488281 -14.132812 9.28125 -14.1875 C 9.070312 -14.238281 8.8125 -14.265625 8.5 -14.265625 C 7.65625 -14.265625 6.890625 -14.039062 6.203125 -13.59375 C 5.515625 -13.144531 4.960938 -12.398438 4.546875 -11.359375 C 4.140625 -10.328125 3.9375 -8.914062 3.9375 -7.125 C 3.9375 -5.351562 4.128906 -3.945312 4.515625 -2.90625 C 4.910156 -1.875 5.441406 -1.140625 6.109375 -0.703125 C 6.785156 -0.265625 7.546875 -0.046875 8.390625 -0.046875 C 8.847656 -0.046875 9.210938 -0.078125 9.484375 -0.140625 C 9.765625 -0.203125 10.039062 -0.300781 10.3125 -0.4375 C 10.59375 -0.550781 10.800781 -0.71875 10.9375 -0.9375 C 11.082031 -1.164062 11.210938 -1.410156 11.328125 -1.671875 L 12.28125 -3.796875 L 12.5 -3.796875 L 12.4375 -0.6875 C 11.832031 -0.375 11.15625 -0.117188 10.40625 0.078125 C 9.65625 0.285156 8.832031 0.390625 7.9375 0.390625 Z M 7.9375 0.390625 "/></g></g></g><g fill="#162144" fill-opacity="1"><g transform="translate(64.825446, 152.978618)"><g><path d="M 0.5 0 L 0.5 -0.21875 L 0.765625 -0.296875 C 1.273438 -0.472656 1.53125 -0.835938 1.53125 -1.390625 L 1.53125 -12.953125 C 1.53125 -13.265625 1.476562 -13.488281 1.375 -13.625 C 1.28125 -13.769531 1.085938 -13.878906 0.796875 -13.953125 L 0.484375 -14.046875 L 0.484375 -14.265625 L 4.296875 -15.1875 L 4.640625 -15 L 4.546875 -11.9375 L 4.546875 -9.234375 C 5.054688 -9.648438 5.601562 -10.003906 6.1875 -10.296875 C 6.769531 -10.597656 7.414062 -10.75 8.125 -10.75 C 9.0625 -10.75 9.804688 -10.476562 10.359375 -9.9375 C 10.921875 -9.40625 11.203125 -8.585938 11.203125 -7.484375 L 11.203125 -1.359375 C 11.203125 -1.078125 11.257812 -0.847656 11.375 -0.671875 C 11.488281 -0.492188 11.691406 -0.363281 11.984375 -0.28125 L 12.15625 -0.21875 L 12.15625 0 L 7.09375 0 L 7.09375 -0.21875 L 7.34375 -0.28125 C 7.863281 -0.457031 8.125 -0.828125 8.125 -1.390625 L 8.125 -8.1875 C 8.125 -8.769531 8.023438 -9.164062 7.828125 -9.375 C 7.640625 -9.59375 7.300781 -9.703125 6.8125 -9.703125 C 6.488281 -9.703125 6.140625 -9.640625 5.765625 -9.515625 C 5.390625 -9.398438 5.003906 -9.191406 4.609375 -8.890625 L 4.609375 -1.34375 C 4.609375 -0.78125 4.867188 -0.421875 5.390625 -0.265625 L 5.5625 -0.21875 L 5.5625 0 Z M 0.5 0 "/></g></g></g><g fill="#162144" fill-opacity="1"><g transform="translate(77.267379, 152.978618)"><g><path d="M 3.59375 0.328125 C 2.757812 0.328125 2.054688 0.0859375 1.484375 -0.390625 C 0.910156 -0.867188 0.625 -1.554688 0.625 -2.453125 C 0.625 -3.128906 0.96875 -3.75 1.65625 -4.3125 C 2.351562 -4.882812 3.445312 -5.316406 4.9375 -5.609375 C 5.164062 -5.648438 5.425781 -5.695312 5.71875 -5.75 C 6.007812 -5.800781 6.3125 -5.859375 6.625 -5.921875 L 6.625 -7.625 C 6.625 -8.613281 6.503906 -9.304688 6.265625 -9.703125 C 6.035156 -10.097656 5.664062 -10.296875 5.15625 -10.296875 C 4.8125 -10.296875 4.535156 -10.179688 4.328125 -9.953125 C 4.128906 -9.734375 4 -9.347656 3.9375 -8.796875 L 3.90625 -8.5625 C 3.875 -7.9375 3.71875 -7.476562 3.4375 -7.1875 C 3.164062 -6.90625 2.828125 -6.765625 2.421875 -6.765625 C 2.046875 -6.765625 1.734375 -6.878906 1.484375 -7.109375 C 1.242188 -7.335938 1.125 -7.648438 1.125 -8.046875 C 1.125 -8.628906 1.328125 -9.125 1.734375 -9.53125 C 2.148438 -9.9375 2.695312 -10.238281 3.375 -10.4375 C 4.0625 -10.644531 4.800781 -10.75 5.59375 -10.75 C 6.875 -10.75 7.863281 -10.429688 8.5625 -9.796875 C 9.269531 -9.171875 9.625 -8.148438 9.625 -6.734375 L 9.625 -1.953125 C 9.625 -1.296875 9.925781 -0.96875 10.53125 -0.96875 L 11.015625 -0.96875 L 11.203125 -0.796875 C 10.929688 -0.453125 10.628906 -0.1875 10.296875 0 C 9.972656 0.1875 9.515625 0.28125 8.921875 0.28125 C 8.285156 0.28125 7.785156 0.132812 7.421875 -0.15625 C 7.054688 -0.457031 6.816406 -0.851562 6.703125 -1.34375 C 6.265625 -0.882812 5.816406 -0.488281 5.359375 -0.15625 C 4.910156 0.164062 4.320312 0.328125 3.59375 0.328125 Z M 4.921875 -1 C 5.210938 -1 5.484375 -1.066406 5.734375 -1.203125 C 5.984375 -1.335938 6.28125 -1.550781 6.625 -1.84375 L 6.625 -5.484375 C 6.488281 -5.453125 6.347656 -5.421875 6.203125 -5.390625 C 6.054688 -5.367188 5.890625 -5.34375 5.703125 -5.3125 C 5.035156 -5.132812 4.503906 -4.835938 4.109375 -4.421875 C 3.710938 -4.015625 3.515625 -3.46875 3.515625 -2.78125 C 3.515625 -2.1875 3.648438 -1.738281 3.921875 -1.4375 C 4.191406 -1.144531 4.523438 -1 4.921875 -1 Z M 4.921875 -1 "/></g></g></g><g fill="#162144" fill-opacity="1"><g transform="translate(88.452104, 152.978618)"><g><path d="M 0.4375 0 L 0.4375 -0.21875 L 0.765625 -0.296875 C 1.046875 -0.390625 1.238281 -0.519531 1.34375 -0.6875 C 1.457031 -0.863281 1.515625 -1.085938 1.515625 -1.359375 L 1.515625 -8.15625 C 1.515625 -8.46875 1.457031 -8.695312 1.34375 -8.84375 C 1.238281 -9 1.046875 -9.109375 0.765625 -9.171875 L 0.4375 -9.25 L 0.4375 -9.46875 L 4.15625 -10.734375 L 4.375 -10.515625 L 4.578125 -8.640625 L 4.578125 -8.46875 C 4.773438 -8.875 5.035156 -9.242188 5.359375 -9.578125 C 5.679688 -9.921875 6.039062 -10.203125 6.4375 -10.421875 C 6.84375 -10.640625 7.238281 -10.75 7.625 -10.75 C 8.175781 -10.75 8.59375 -10.597656 8.875 -10.296875 C 9.164062 -9.992188 9.3125 -9.609375 9.3125 -9.140625 C 9.3125 -8.648438 9.171875 -8.269531 8.890625 -8 C 8.609375 -7.738281 8.273438 -7.609375 7.890625 -7.609375 C 7.285156 -7.609375 6.75 -7.910156 6.28125 -8.515625 L 6.234375 -8.5625 C 6.097656 -8.757812 5.9375 -8.867188 5.75 -8.890625 C 5.5625 -8.910156 5.382812 -8.820312 5.21875 -8.625 C 5.070312 -8.5 4.953125 -8.34375 4.859375 -8.15625 C 4.765625 -7.976562 4.675781 -7.773438 4.59375 -7.546875 L 4.59375 -1.5 C 4.59375 -0.914062 4.847656 -0.550781 5.359375 -0.40625 L 6.046875 -0.21875 L 6.046875 0 Z M 0.4375 0 "/></g></g></g><g fill="#162144" fill-opacity="1"><g transform="translate(98.206227, 152.978618)"><g><path d="M 4.546875 0.328125 C 3.628906 0.328125 2.910156 0.0976562 2.390625 -0.359375 C 1.878906 -0.828125 1.625 -1.566406 1.625 -2.578125 L 1.625 -9.984375 L 0.125 -9.984375 L 0.125 -10.203125 L 0.65625 -10.296875 C 1.101562 -10.398438 1.488281 -10.546875 1.8125 -10.734375 C 2.132812 -10.921875 2.457031 -11.171875 2.78125 -11.484375 L 4.546875 -13.453125 L 4.765625 -13.453125 L 4.703125 -10.421875 L 7.125 -10.421875 L 7.125 -9.984375 L 4.6875 -9.984375 L 4.6875 -2.1875 C 4.6875 -1.6875 4.796875 -1.304688 5.015625 -1.046875 C 5.242188 -0.785156 5.53125 -0.65625 5.875 -0.65625 C 6.175781 -0.65625 6.441406 -0.726562 6.671875 -0.875 C 6.898438 -1.03125 7.132812 -1.238281 7.375 -1.5 L 7.578125 -1.28125 C 7.296875 -0.789062 6.898438 -0.398438 6.390625 -0.109375 C 5.890625 0.179688 5.273438 0.328125 4.546875 0.328125 Z M 4.546875 0.328125 "/></g></g></g><g fill="#162144" fill-opacity="1"><g transform="translate(105.966177, 152.978618)"><g><path d="M 5.875 -10.75 C 6.8125 -10.75 7.613281 -10.554688 8.28125 -10.171875 C 8.945312 -9.785156 9.457031 -9.265625 9.8125 -8.609375 C 10.164062 -7.953125 10.34375 -7.207031 10.34375 -6.375 C 10.34375 -6.21875 10.332031 -6.054688 10.3125 -5.890625 C 10.300781 -5.722656 10.273438 -5.570312 10.234375 -5.4375 L 3.765625 -5.4375 C 3.785156 -3.875 4.066406 -2.75 4.609375 -2.0625 C 5.148438 -1.382812 5.953125 -1.046875 7.015625 -1.046875 C 7.742188 -1.046875 8.332031 -1.160156 8.78125 -1.390625 C 9.226562 -1.617188 9.644531 -1.957031 10.03125 -2.40625 L 10.25 -2.203125 C 9.800781 -1.410156 9.203125 -0.789062 8.453125 -0.34375 C 7.710938 0.101562 6.820312 0.328125 5.78125 0.328125 C 4.757812 0.328125 3.847656 0.109375 3.046875 -0.328125 C 2.253906 -0.773438 1.632812 -1.410156 1.1875 -2.234375 C 0.738281 -3.054688 0.515625 -4.035156 0.515625 -5.171875 C 0.515625 -6.359375 0.773438 -7.367188 1.296875 -8.203125 C 1.816406 -9.035156 2.484375 -9.664062 3.296875 -10.09375 C 4.117188 -10.53125 4.976562 -10.75 5.875 -10.75 Z M 5.8125 -10.3125 C 5.382812 -10.3125 5.023438 -10.1875 4.734375 -9.9375 C 4.441406 -9.6875 4.210938 -9.238281 4.046875 -8.59375 C 3.878906 -7.945312 3.785156 -7.039062 3.765625 -5.875 L 7.484375 -5.875 C 7.617188 -7.445312 7.554688 -8.578125 7.296875 -9.265625 C 7.035156 -9.960938 6.539062 -10.3125 5.8125 -10.3125 Z M 5.8125 -10.3125 "/></g></g></g><g fill="#162144" fill-opacity="1"><g transform="translate(116.955823, 152.978618)"><g><path d="M 0.4375 0 L 0.4375 -0.21875 L 0.765625 -0.296875 C 1.046875 -0.390625 1.238281 -0.519531 1.34375 -0.6875 C 1.457031 -0.863281 1.515625 -1.085938 1.515625 -1.359375 L 1.515625 -8.15625 C 1.515625 -8.46875 1.457031 -8.695312 1.34375 -8.84375 C 1.238281 -9 1.046875 -9.109375 0.765625 -9.171875 L 0.4375 -9.25 L 0.4375 -9.46875 L 4.15625 -10.734375 L 4.375 -10.515625 L 4.578125 -8.640625 L 4.578125 -8.46875 C 4.773438 -8.875 5.035156 -9.242188 5.359375 -9.578125 C 5.679688 -9.921875 6.039062 -10.203125 6.4375 -10.421875 C 6.84375 -10.640625 7.238281 -10.75 7.625 -10.75 C 8.175781 -10.75 8.59375 -10.597656 8.875 -10.296875 C 9.164062 -9.992188 9.3125 -9.609375 9.3125 -9.140625 C 9.3125 -8.648438 9.171875 -8.269531 8.890625 -8 C 8.609375 -7.738281 8.273438 -7.609375 7.890625 -7.609375 C 7.285156 -7.609375 6.75 -7.910156 6.28125 -8.515625 L 6.234375 -8.5625 C 6.097656 -8.757812 5.9375 -8.867188 5.75 -8.890625 C 5.5625 -8.910156 5.382812 -8.820312 5.21875 -8.625 C 5.070312 -8.5 4.953125 -8.34375 4.859375 -8.15625 C 4.765625 -7.976562 4.675781 -7.773438 4.59375 -7.546875 L 4.59375 -1.5 C 4.59375 -0.914062 4.847656 -0.550781 5.359375 -0.40625 L 6.046875 -0.21875 L 6.046875 0 Z M 0.4375 0 "/></g></g></g><g fill="#162144" fill-opacity="1"><g transform="translate(126.16806, 152.978618)"><g><path d="M 5.875 -10.75 C 6.8125 -10.75 7.613281 -10.554688 8.28125 -10.171875 C 8.945312 -9.785156 9.457031 -9.265625 9.8125 -8.609375 C 10.164062 -7.953125 10.34375 -7.207031 10.34375 -6.375 C 10.34375 -6.21875 10.332031 -6.054688 10.3125 -5.890625 C 10.300781 -5.722656 10.273438 -5.570312 10.234375 -5.4375 L 3.765625 -5.4375 C 3.785156 -3.875 4.066406 -2.75 4.609375 -2.0625 C 5.148438 -1.382812 5.953125 -1.046875 7.015625 -1.046875 C 7.742188 -1.046875 8.332031 -1.160156 8.78125 -1.390625 C 9.226562 -1.617188 9.644531 -1.957031 10.03125 -2.40625 L 10.25 -2.203125 C 9.800781 -1.410156 9.203125 -0.789062 8.453125 -0.34375 C 7.710938 0.101562 6.820312 0.328125 5.78125 0.328125 C 4.757812 0.328125 3.847656 0.109375 3.046875 -0.328125 C 2.253906 -0.773438 1.632812 -1.410156 1.1875 -2.234375 C 0.738281 -3.054688 0.515625 -4.035156 0.515625 -5.171875 C 0.515625 -6.359375 0.773438 -7.367188 1.296875 -8.203125 C 1.816406 -9.035156 2.484375 -9.664062 3.296875 -10.09375 C 4.117188 -10.53125 4.976562 -10.75 5.875 -10.75 Z M 5.8125 -10.3125 C 5.382812 -10.3125 5.023438 -10.1875 4.734375 -9.9375 C 4.441406 -9.6875 4.210938 -9.238281 4.046875 -8.59375 C 3.878906 -7.945312 3.785156 -7.039062 3.765625 -5.875 L 7.484375 -5.875 C 7.617188 -7.445312 7.554688 -8.578125 7.296875 -9.265625 C 7.035156 -9.960938 6.539062 -10.3125 5.8125 -10.3125 Z M 5.8125 -10.3125 "/></g></g></g><g fill="#162144" fill-opacity="1"><g transform="translate(137.157707, 152.978618)"><g><path d="M 5.03125 0.328125 C 4.175781 0.328125 3.410156 0.132812 2.734375 -0.25 C 2.054688 -0.632812 1.515625 -1.226562 1.109375 -2.03125 C 0.710938 -2.832031 0.515625 -3.859375 0.515625 -5.109375 C 0.515625 -6.378906 0.738281 -7.429688 1.1875 -8.265625 C 1.632812 -9.097656 2.226562 -9.71875 2.96875 -10.125 C 3.707031 -10.539062 4.507812 -10.75 5.375 -10.75 C 5.882812 -10.75 6.367188 -10.695312 6.828125 -10.59375 C 7.285156 -10.5 7.695312 -10.347656 8.0625 -10.140625 L 8.0625 -12.953125 C 8.0625 -13.265625 8.015625 -13.488281 7.921875 -13.625 C 7.828125 -13.769531 7.628906 -13.875 7.328125 -13.9375 L 6.90625 -14.015625 L 6.90625 -14.234375 L 10.859375 -15.1875 L 11.09375 -15 L 11.015625 -11.96875 L 11.015625 -1.359375 C 11.015625 -1.078125 11.0625 -0.84375 11.15625 -0.65625 C 11.257812 -0.476562 11.445312 -0.351562 11.71875 -0.28125 L 11.921875 -0.21875 L 11.921875 0 L 8.21875 0.234375 L 8.015625 -0.546875 C 7.628906 -0.285156 7.1875 -0.078125 6.6875 0.078125 C 6.1875 0.242188 5.632812 0.328125 5.03125 0.328125 Z M 6.28125 -0.484375 C 6.882812 -0.484375 7.441406 -0.660156 7.953125 -1.015625 L 7.953125 -9.625 C 7.421875 -9.96875 6.875 -10.140625 6.3125 -10.140625 C 5.613281 -10.140625 5.019531 -9.738281 4.53125 -8.9375 C 4.039062 -8.132812 3.796875 -6.875 3.796875 -5.15625 C 3.796875 -3.4375 4.023438 -2.226562 4.484375 -1.53125 C 4.941406 -0.832031 5.539062 -0.484375 6.28125 -0.484375 Z M 6.28125 -0.484375 "/></g></g></g><g fill="#162144" fill-opacity="1"><g transform="translate(149.59964, 152.978618)"><g/></g></g><g fill="#162144" fill-opacity="1"><g transform="translate(154.324971, 152.978618)"><g><path d="M 0.171875 0 L 0.171875 -0.21875 L 0.71875 -0.40625 C 1.007812 -0.519531 1.234375 -0.660156 1.390625 -0.828125 C 1.546875 -0.992188 1.675781 -1.226562 1.78125 -1.53125 L 6.234375 -14.34375 L 8.078125 -14.34375 L 12.484375 -1.453125 C 12.597656 -1.128906 12.726562 -0.882812 12.875 -0.71875 C 13.019531 -0.5625 13.242188 -0.421875 13.546875 -0.296875 L 13.8125 -0.21875 L 13.8125 0 L 8.296875 0 L 8.296875 -0.21875 L 8.625 -0.328125 C 8.925781 -0.441406 9.109375 -0.601562 9.171875 -0.8125 C 9.242188 -1.019531 9.234375 -1.269531 9.140625 -1.5625 L 8.125 -4.6875 L 3.3125 -4.6875 L 2.28125 -1.625 C 2.175781 -1.3125 2.140625 -1.054688 2.171875 -0.859375 C 2.210938 -0.671875 2.382812 -0.519531 2.6875 -0.40625 L 3.171875 -0.21875 L 3.171875 0 Z M 3.46875 -5.109375 L 8 -5.109375 L 5.8125 -11.859375 Z M 3.46875 -5.109375 "/></g></g></g><g fill="#162144" fill-opacity="1"><g transform="translate(167.980744, 152.978618)"><g><path d="M 5.8125 0.328125 C 4.820312 0.328125 3.925781 0.113281 3.125 -0.3125 C 2.320312 -0.738281 1.6875 -1.359375 1.21875 -2.171875 C 0.75 -2.992188 0.515625 -3.992188 0.515625 -5.171875 C 0.515625 -6.347656 0.769531 -7.347656 1.28125 -8.171875 C 1.800781 -9.003906 2.488281 -9.640625 3.34375 -10.078125 C 4.207031 -10.523438 5.148438 -10.75 6.171875 -10.75 C 7.015625 -10.75 7.722656 -10.609375 8.296875 -10.328125 C 8.878906 -10.054688 9.320312 -9.703125 9.625 -9.265625 C 9.925781 -8.828125 10.078125 -8.367188 10.078125 -7.890625 C 10.078125 -7.484375 9.953125 -7.164062 9.703125 -6.9375 C 9.460938 -6.71875 9.144531 -6.609375 8.75 -6.609375 C 8.332031 -6.609375 7.992188 -6.757812 7.734375 -7.0625 C 7.472656 -7.363281 7.320312 -7.757812 7.28125 -8.25 C 7.269531 -8.570312 7.273438 -8.84375 7.296875 -9.0625 C 7.328125 -9.289062 7.328125 -9.519531 7.296875 -9.75 C 7.242188 -10 7.15625 -10.160156 7.03125 -10.234375 C 6.90625 -10.316406 6.734375 -10.359375 6.515625 -10.359375 C 5.640625 -10.359375 4.957031 -9.972656 4.46875 -9.203125 C 3.988281 -8.441406 3.75 -7.222656 3.75 -5.546875 C 3.75 -4.085938 4.019531 -2.972656 4.5625 -2.203125 C 5.101562 -1.429688 5.9375 -1.046875 7.0625 -1.046875 C 7.738281 -1.046875 8.285156 -1.164062 8.703125 -1.40625 C 9.128906 -1.65625 9.535156 -2.023438 9.921875 -2.515625 L 10.140625 -2.34375 C 9.773438 -1.488281 9.21875 -0.828125 8.46875 -0.359375 C 7.71875 0.0976562 6.832031 0.328125 5.8125 0.328125 Z M 5.8125 0.328125 "/></g></g></g><g fill="#162144" fill-opacity="1"><g transform="translate(178.55857, 152.978618)"><g><path d="M 5.8125 0.328125 C 4.820312 0.328125 3.925781 0.113281 3.125 -0.3125 C 2.320312 -0.738281 1.6875 -1.359375 1.21875 -2.171875 C 0.75 -2.992188 0.515625 -3.992188 0.515625 -5.171875 C 0.515625 -6.347656 0.769531 -7.347656 1.28125 -8.171875 C 1.800781 -9.003906 2.488281 -9.640625 3.34375 -10.078125 C 4.207031 -10.523438 5.148438 -10.75 6.171875 -10.75 C 7.015625 -10.75 7.722656 -10.609375 8.296875 -10.328125 C 8.878906 -10.054688 9.320312 -9.703125 9.625 -9.265625 C 9.925781 -8.828125 10.078125 -8.367188 10.078125 -7.890625 C 10.078125 -7.484375 9.953125 -7.164062 9.703125 -6.9375 C 9.460938 -6.71875 9.144531 -6.609375 8.75 -6.609375 C 8.332031 -6.609375 7.992188 -6.757812 7.734375 -7.0625 C 7.472656 -7.363281 7.320312 -7.757812 7.28125 -8.25 C 7.269531 -8.570312 7.273438 -8.84375 7.296875 -9.0625 C 7.328125 -9.289062 7.328125 -9.519531 7.296875 -9.75 C 7.242188 -10 7.15625 -10.160156 7.03125 -10.234375 C 6.90625 -10.316406 6.734375 -10.359375 6.515625 -10.359375 C 5.640625 -10.359375 4.957031 -9.972656 4.46875 -9.203125 C 3.988281 -8.441406 3.75 -7.222656 3.75 -5.546875 C 3.75 -4.085938 4.019531 -2.972656 4.5625 -2.203125 C 5.101562 -1.429688 5.9375 -1.046875 7.0625 -1.046875 C 7.738281 -1.046875 8.285156 -1.164062 8.703125 -1.40625 C 9.128906 -1.65625 9.535156 -2.023438 9.921875 -2.515625 L 10.140625 -2.34375 C 9.773438 -1.488281 9.21875 -0.828125 8.46875 -0.359375 C 7.71875 0.0976562 6.832031 0.328125 5.8125 0.328125 Z M 5.8125 0.328125 "/></g></g></g><g fill="#162144" fill-opacity="1"><g transform="translate(189.136396, 152.978618)"><g><path d="M 5.921875 0.328125 C 4.816406 0.328125 3.859375 0.0976562 3.046875 -0.359375 C 2.242188 -0.816406 1.617188 -1.460938 1.171875 -2.296875 C 0.734375 -3.128906 0.515625 -4.113281 0.515625 -5.25 C 0.515625 -6.375 0.75 -7.347656 1.21875 -8.171875 C 1.6875 -8.992188 2.328125 -9.628906 3.140625 -10.078125 C 3.960938 -10.523438 4.890625 -10.75 5.921875 -10.75 C 6.941406 -10.75 7.851562 -10.523438 8.65625 -10.078125 C 9.46875 -9.640625 10.109375 -9.007812 10.578125 -8.1875 C 11.054688 -7.363281 11.296875 -6.382812 11.296875 -5.25 C 11.296875 -4.101562 11.070312 -3.113281 10.625 -2.28125 C 10.1875 -1.457031 9.566406 -0.816406 8.765625 -0.359375 C 7.960938 0.0976562 7.015625 0.328125 5.921875 0.328125 Z M 5.921875 -0.109375 C 6.421875 -0.109375 6.820312 -0.25 7.125 -0.53125 C 7.425781 -0.820312 7.644531 -1.335938 7.78125 -2.078125 C 7.925781 -2.816406 8 -3.859375 8 -5.203125 C 8 -6.554688 7.925781 -7.601562 7.78125 -8.34375 C 7.644531 -9.082031 7.425781 -9.59375 7.125 -9.875 C 6.820312 -10.164062 6.421875 -10.3125 5.921875 -10.3125 C 5.410156 -10.3125 5 -10.164062 4.6875 -9.875 C 4.375 -9.59375 4.148438 -9.082031 4.015625 -8.34375 C 3.878906 -7.601562 3.8125 -6.554688 3.8125 -5.203125 C 3.8125 -3.859375 3.878906 -2.816406 4.015625 -2.078125 C 4.148438 -1.335938 4.375 -0.820312 4.6875 -0.53125 C 5 -0.25 5.410156 -0.109375 5.921875 -0.109375 Z M 5.921875 -0.109375 "/></g></g></g><g fill="#162144" fill-opacity="1"><g transform="translate(200.863028, 152.978618)"><g><path d="M 4.359375 0.328125 C 3.796875 0.328125 3.28125 0.21875 2.8125 0 C 2.34375 -0.21875 1.972656 -0.566406 1.703125 -1.046875 C 1.429688 -1.535156 1.304688 -2.175781 1.328125 -2.96875 L 1.390625 -8.53125 C 1.390625 -8.863281 1.332031 -9.101562 1.21875 -9.25 C 1.101562 -9.394531 0.921875 -9.5 0.671875 -9.5625 L 0.40625 -9.640625 L 0.40625 -9.859375 L 4.296875 -10.625 L 4.5 -10.40625 L 4.40625 -7.328125 L 4.40625 -2.109375 C 4.40625 -1.640625 4.535156 -1.296875 4.796875 -1.078125 C 5.066406 -0.867188 5.40625 -0.765625 5.8125 -0.765625 C 6.21875 -0.765625 6.578125 -0.820312 6.890625 -0.9375 C 7.210938 -1.050781 7.53125 -1.222656 7.84375 -1.453125 L 7.9375 -8.515625 C 7.9375 -8.847656 7.882812 -9.082031 7.78125 -9.21875 C 7.675781 -9.351562 7.488281 -9.453125 7.21875 -9.515625 L 7 -9.578125 L 7 -9.796875 L 10.796875 -10.625 L 11.015625 -10.40625 L 10.9375 -7.328125 L 10.9375 -1.453125 C 10.9375 -1.128906 10.976562 -0.878906 11.0625 -0.703125 C 11.15625 -0.535156 11.347656 -0.394531 11.640625 -0.28125 L 11.859375 -0.21875 L 11.859375 0 L 8.0625 0.21875 L 7.859375 -1.0625 C 7.390625 -0.675781 6.875 -0.347656 6.3125 -0.078125 C 5.757812 0.191406 5.109375 0.328125 4.359375 0.328125 Z M 4.359375 0.328125 "/></g></g></g><g fill="#162144" fill-opacity="1"><g transform="translate(213.153232, 152.978618)"><g><path d="M 0.4375 0 L 0.4375 -0.21875 L 0.734375 -0.296875 C 1.242188 -0.441406 1.5 -0.796875 1.5 -1.359375 L 1.5 -8.15625 C 1.5 -8.46875 1.445312 -8.695312 1.34375 -8.84375 C 1.238281 -9 1.046875 -9.109375 0.765625 -9.171875 L 0.4375 -9.25 L 0.4375 -9.46875 L 4.140625 -10.734375 L 4.359375 -10.515625 L 4.53125 -9.203125 C 5.03125 -9.648438 5.597656 -10.019531 6.234375 -10.3125 C 6.867188 -10.601562 7.5 -10.75 8.125 -10.75 C 9.082031 -10.75 9.816406 -10.488281 10.328125 -9.96875 C 10.835938 -9.445312 11.09375 -8.648438 11.09375 -7.578125 L 11.09375 -1.34375 C 11.09375 -0.78125 11.367188 -0.425781 11.921875 -0.28125 L 12.109375 -0.21875 L 12.109375 0 L 7 0 L 7 -0.21875 L 7.28125 -0.296875 C 7.789062 -0.460938 8.046875 -0.816406 8.046875 -1.359375 L 8.046875 -8.28125 C 8.046875 -9.207031 7.582031 -9.671875 6.65625 -9.671875 C 6.019531 -9.671875 5.328125 -9.351562 4.578125 -8.71875 L 4.578125 -1.34375 C 4.578125 -0.78125 4.828125 -0.425781 5.328125 -0.28125 L 5.53125 -0.21875 L 5.53125 0 Z M 0.4375 0 "/></g></g></g><g fill="#162144" fill-opacity="1"><g transform="translate(225.57348, 152.978618)"><g><path d="M 4.546875 0.328125 C 3.628906 0.328125 2.910156 0.0976562 2.390625 -0.359375 C 1.878906 -0.828125 1.625 -1.566406 1.625 -2.578125 L 1.625 -9.984375 L 0.125 -9.984375 L 0.125 -10.203125 L 0.65625 -10.296875 C 1.101562 -10.398438 1.488281 -10.546875 1.8125 -10.734375 C 2.132812 -10.921875 2.457031 -11.171875 2.78125 -11.484375 L 4.546875 -13.453125 L 4.765625 -13.453125 L 4.703125 -10.421875 L 7.125 -10.421875 L 7.125 -9.984375 L 4.6875 -9.984375 L 4.6875 -2.1875 C 4.6875 -1.6875 4.796875 -1.304688 5.015625 -1.046875 C 5.242188 -0.785156 5.53125 -0.65625 5.875 -0.65625 C 6.175781 -0.65625 6.441406 -0.726562 6.671875 -0.875 C 6.898438 -1.03125 7.132812 -1.238281 7.375 -1.5 L 7.578125 -1.28125 C 7.296875 -0.789062 6.898438 -0.398438 6.390625 -0.109375 C 5.890625 0.179688 5.273438 0.328125 4.546875 0.328125 Z M 4.546875 0.328125 "/></g></g></g><g fill="#162144" fill-opacity="1"><g transform="translate(233.398463, 152.978618)"><g><path d="M 3.59375 0.328125 C 2.757812 0.328125 2.054688 0.0859375 1.484375 -0.390625 C 0.910156 -0.867188 0.625 -1.554688 0.625 -2.453125 C 0.625 -3.128906 0.96875 -3.75 1.65625 -4.3125 C 2.351562 -4.882812 3.445312 -5.316406 4.9375 -5.609375 C 5.164062 -5.648438 5.425781 -5.695312 5.71875 -5.75 C 6.007812 -5.800781 6.3125 -5.859375 6.625 -5.921875 L 6.625 -7.625 C 6.625 -8.613281 6.503906 -9.304688 6.265625 -9.703125 C 6.035156 -10.097656 5.664062 -10.296875 5.15625 -10.296875 C 4.8125 -10.296875 4.535156 -10.179688 4.328125 -9.953125 C 4.128906 -9.734375 4 -9.347656 3.9375 -8.796875 L 3.90625 -8.5625 C 3.875 -7.9375 3.71875 -7.476562 3.4375 -7.1875 C 3.164062 -6.90625 2.828125 -6.765625 2.421875 -6.765625 C 2.046875 -6.765625 1.734375 -6.878906 1.484375 -7.109375 C 1.242188 -7.335938 1.125 -7.648438 1.125 -8.046875 C 1.125 -8.628906 1.328125 -9.125 1.734375 -9.53125 C 2.148438 -9.9375 2.695312 -10.238281 3.375 -10.4375 C 4.0625 -10.644531 4.800781 -10.75 5.59375 -10.75 C 6.875 -10.75 7.863281 -10.429688 8.5625 -9.796875 C 9.269531 -9.171875 9.625 -8.148438 9.625 -6.734375 L 9.625 -1.953125 C 9.625 -1.296875 9.925781 -0.96875 10.53125 -0.96875 L 11.015625 -0.96875 L 11.203125 -0.796875 C 10.929688 -0.453125 10.628906 -0.1875 10.296875 0 C 9.972656 0.1875 9.515625 0.28125 8.921875 0.28125 C 8.285156 0.28125 7.785156 0.132812 7.421875 -0.15625 C 7.054688 -0.457031 6.816406 -0.851562 6.703125 -1.34375 C 6.265625 -0.882812 5.816406 -0.488281 5.359375 -0.15625 C 4.910156 0.164062 4.320312 0.328125 3.59375 0.328125 Z M 4.921875 -1 C 5.210938 -1 5.484375 -1.066406 5.734375 -1.203125 C 5.984375 -1.335938 6.28125 -1.550781 6.625 -1.84375 L 6.625 -5.484375 C 6.488281 -5.453125 6.347656 -5.421875 6.203125 -5.390625 C 6.054688 -5.367188 5.890625 -5.34375 5.703125 -5.3125 C 5.035156 -5.132812 4.503906 -4.835938 4.109375 -4.421875 C 3.710938 -4.015625 3.515625 -3.46875 3.515625 -2.78125 C 3.515625 -2.1875 3.648438 -1.738281 3.921875 -1.4375 C 4.191406 -1.144531 4.523438 -1 4.921875 -1 Z M 4.921875 -1 "/></g></g></g><g fill="#162144" fill-opacity="1"><g transform="translate(244.583188, 152.978618)"><g><path d="M 0.4375 0 L 0.4375 -0.21875 L 0.734375 -0.296875 C 1.242188 -0.441406 1.5 -0.796875 1.5 -1.359375 L 1.5 -8.15625 C 1.5 -8.46875 1.445312 -8.695312 1.34375 -8.84375 C 1.238281 -9 1.046875 -9.109375 0.765625 -9.171875 L 0.4375 -9.25 L 0.4375 -9.46875 L 4.140625 -10.734375 L 4.359375 -10.515625 L 4.53125 -9.203125 C 5.03125 -9.648438 5.597656 -10.019531 6.234375 -10.3125 C 6.867188 -10.601562 7.5 -10.75 8.125 -10.75 C 9.082031 -10.75 9.816406 -10.488281 10.328125 -9.96875 C 10.835938 -9.445312 11.09375 -8.648438 11.09375 -7.578125 L 11.09375 -1.34375 C 11.09375 -0.78125 11.367188 -0.425781 11.921875 -0.28125 L 12.109375 -0.21875 L 12.109375 0 L 7 0 L 7 -0.21875 L 7.28125 -0.296875 C 7.789062 -0.460938 8.046875 -0.816406 8.046875 -1.359375 L 8.046875 -8.28125 C 8.046875 -9.207031 7.582031 -9.671875 6.65625 -9.671875 C 6.019531 -9.671875 5.328125 -9.351562 4.578125 -8.71875 L 4.578125 -1.34375 C 4.578125 -0.78125 4.828125 -0.425781 5.328125 -0.28125 L 5.53125 -0.21875 L 5.53125 0 Z M 0.4375 0 "/></g></g></g><g fill="#162144" fill-opacity="1"><g transform="translate(257.003437, 152.978618)"><g><path d="M 4.546875 0.328125 C 3.628906 0.328125 2.910156 0.0976562 2.390625 -0.359375 C 1.878906 -0.828125 1.625 -1.566406 1.625 -2.578125 L 1.625 -9.984375 L 0.125 -9.984375 L 0.125 -10.203125 L 0.65625 -10.296875 C 1.101562 -10.398438 1.488281 -10.546875 1.8125 -10.734375 C 2.132812 -10.921875 2.457031 -11.171875 2.78125 -11.484375 L 4.546875 -13.453125 L 4.765625 -13.453125 L 4.703125 -10.421875 L 7.125 -10.421875 L 7.125 -9.984375 L 4.6875 -9.984375 L 4.6875 -2.1875 C 4.6875 -1.6875 4.796875 -1.304688 5.015625 -1.046875 C 5.242188 -0.785156 5.53125 -0.65625 5.875 -0.65625 C 6.175781 -0.65625 6.441406 -0.726562 6.671875 -0.875 C 6.898438 -1.03125 7.132812 -1.238281 7.375 -1.5 L 7.578125 -1.28125 C 7.296875 -0.789062 6.898438 -0.398438 6.390625 -0.109375 C 5.890625 0.179688 5.273438 0.328125 4.546875 0.328125 Z M 4.546875 0.328125 "/></g></g></g><g fill="#162144" fill-opacity="1"><g transform="translate(264.958465, 152.978618)"><g><path d="M 4.1875 0.328125 C 3.476562 0.328125 2.84375 0.242188 2.28125 0.078125 C 1.71875 -0.0859375 1.195312 -0.296875 0.71875 -0.546875 L 0.734375 -3.125 L 0.953125 -3.125 L 1.6875 -1.828125 C 2.007812 -1.242188 2.359375 -0.8125 2.734375 -0.53125 C 3.117188 -0.25 3.609375 -0.109375 4.203125 -0.109375 C 4.898438 -0.109375 5.457031 -0.265625 5.875 -0.578125 C 6.300781 -0.890625 6.515625 -1.304688 6.515625 -1.828125 C 6.515625 -2.296875 6.363281 -2.679688 6.0625 -2.984375 C 5.757812 -3.296875 5.195312 -3.570312 4.375 -3.8125 L 3.46875 -4.09375 C 2.582031 -4.351562 1.882812 -4.757812 1.375 -5.3125 C 0.875 -5.863281 0.625 -6.535156 0.625 -7.328125 C 0.625 -8.273438 1 -9.082031 1.75 -9.75 C 2.5 -10.414062 3.578125 -10.75 4.984375 -10.75 C 5.546875 -10.75 6.078125 -10.6875 6.578125 -10.5625 C 7.078125 -10.4375 7.554688 -10.253906 8.015625 -10.015625 L 7.890625 -7.671875 L 7.671875 -7.671875 L 6.90625 -9.015625 C 6.632812 -9.492188 6.363281 -9.828125 6.09375 -10.015625 C 5.832031 -10.210938 5.429688 -10.3125 4.890625 -10.3125 C 4.398438 -10.3125 3.9375 -10.175781 3.5 -9.90625 C 3.070312 -9.632812 2.859375 -9.242188 2.859375 -8.734375 C 2.859375 -8.242188 3.039062 -7.851562 3.40625 -7.5625 C 3.78125 -7.269531 4.328125 -7.003906 5.046875 -6.765625 L 6.03125 -6.484375 C 7.0625 -6.160156 7.800781 -5.71875 8.25 -5.15625 C 8.695312 -4.601562 8.921875 -3.941406 8.921875 -3.171875 C 8.921875 -2.109375 8.503906 -1.257812 7.671875 -0.625 C 6.847656 0.0078125 5.6875 0.328125 4.1875 0.328125 Z M 4.1875 0.328125 "/></g></g></g></svg>